<svg xmlns="http://www.w3.org/2000/svg"  viewBox="0 0 80 80" width="80px" height="80px"><path d="M 40 9 C 31.726563 9 25 15.726563 25 24 L 25 31.265625 C 25 36.667969 27.882813 41.375 32.1875 44 L 32 44 L 32 49.28125 C 30.566406 49.761719 26.867188 51.074219 23.050781 52.980469 C 20.632813 54.191406 18.199219 55.621094 16.3125 57.261719 C 14.425781 58.898438 13 60.796875 13 63 L 13 71 L 67 71 L 67 63 C 67 60.796875 65.574219 58.898438 63.6875 57.261719 C 61.800781 55.621094 59.367188 54.191406 56.949219 52.980469 C 53.132813 51.074219 49.433594 49.761719 48 49.28125 L 48 44 L 47.8125 44 C 52.117188 41.375 55 36.667969 55 31.265625 L 55 24 C 55 15.726563 48.273438 9 40 9 Z M 40 11 C 47.191406 11 53 16.808594 53 24 L 53 31.265625 C 53 37.667969 48.378906 42.960938 42.296875 44.046875 L 42.011719 44.097656 L 41.796875 44.292969 C 41.3125 44.734375 40.695313 45 40 45 C 39.304688 45 38.6875 44.734375 38.203125 44.292969 L 37.988281 44.097656 L 37.703125 44.046875 C 31.621094 42.960938 27 37.667969 27 31.265625 L 27 24 C 27 16.808594 32.808594 11 40 11 Z M 34 44.933594 C 34.980469 45.363281 36.011719 45.703125 37.085938 45.917969 C 37.882813 46.566406 38.882813 47 40 47 C 41.117188 47 42.117188 46.566406 42.914063 45.917969 C 43.988281 45.703125 45.019531 45.363281 46 44.933594 L 46 50.6875 C 45.878906 50.929688 44.296875 54 40 54 C 35.703125 54 34.121094 50.929688 34 50.6875 Z M 32.066406 51.375 L 32.105469 51.449219 C 32.105469 51.449219 34.464844 56 40 56 C 45.535156 56 47.894531 51.449219 47.894531 51.449219 L 47.933594 51.375 C 49.605469 51.957031 52.789063 53.136719 56.050781 54.769531 C 58.382813 55.933594 60.699219 57.316406 62.375 58.769531 C 64.050781 60.226563 65 61.703125 65 63 L 65 69 L 15 69 L 15 63 C 15 61.703125 15.949219 60.226563 17.625 58.769531 C 19.300781 57.316406 21.617188 55.933594 23.949219 54.769531 C 27.210938 53.136719 30.394531 51.957031 32.066406 51.375 Z M 18 65 C 17.449219 65 17 65.449219 17 66 C 17 66.550781 17.449219 67 18 67 C 18.550781 67 19 66.550781 19 66 C 19 65.449219 18.550781 65 18 65 Z M 22 65 C 21.449219 65 21 65.449219 21 66 C 21 66.550781 21.449219 67 22 67 C 22.550781 67 23 66.550781 23 66 C 23 65.449219 22.550781 65 22 65 Z M 26 65 C 25.449219 65 25 65.449219 25 66 C 25 66.550781 25.449219 67 26 67 C 26.550781 67 27 66.550781 27 66 C 27 65.449219 26.550781 65 26 65 Z M 30 65 C 29.449219 65 29 65.449219 29 66 C 29 66.550781 29.449219 67 30 67 C 30.550781 67 31 66.550781 31 66 C 31 65.449219 30.550781 65 30 65 Z M 34 65 C 33.449219 65 33 65.449219 33 66 C 33 66.550781 33.449219 67 34 67 C 34.550781 67 35 66.550781 35 66 C 35 65.449219 34.550781 65 34 65 Z M 38 65 C 37.449219 65 37 65.449219 37 66 C 37 66.550781 37.449219 67 38 67 C 38.550781 67 39 66.550781 39 66 C 39 65.449219 38.550781 65 38 65 Z M 42 65 C 41.449219 65 41 65.449219 41 66 C 41 66.550781 41.449219 67 42 67 C 42.550781 67 43 66.550781 43 66 C 43 65.449219 42.550781 65 42 65 Z M 46 65 C 45.449219 65 45 65.449219 45 66 C 45 66.550781 45.449219 67 46 67 C 46.550781 67 47 66.550781 47 66 C 47 65.449219 46.550781 65 46 65 Z M 50 65 C 49.449219 65 49 65.449219 49 66 C 49 66.550781 49.449219 67 50 67 C 50.550781 67 51 66.550781 51 66 C 51 65.449219 50.550781 65 50 65 Z M 54 65 C 53.449219 65 53 65.449219 53 66 C 53 66.550781 53.449219 67 54 67 C 54.550781 67 55 66.550781 55 66 C 55 65.449219 54.550781 65 54 65 Z M 58 65 C 57.449219 65 57 65.449219 57 66 C 57 66.550781 57.449219 67 58 67 C 58.550781 67 59 66.550781 59 66 C 59 65.449219 58.550781 65 58 65 Z M 62 65 C 61.449219 65 61 65.449219 61 66 C 61 66.550781 61.449219 67 62 67 C 62.550781 67 63 66.550781 63 66 C 63 65.449219 62.550781 65 62 65 Z"/></svg>